# Blender v2.80 (sub 75) OBJ File: ''
# www.blender.org
o transformer
v -0.879809 2.002500 0.120193
v -1.129809 2.065000 0.120193
v -1.129809 2.002500 0.120193
v -1.192309 2.065000 -0.192307
v -1.129809 2.065000 -0.129807
v -1.129809 2.002500 -0.129807
v -0.879809 2.065000 -0.129807
v -0.879809 2.002500 -0.129807
v -0.879809 2.065000 0.120193
v -1.192309 2.065000 0.182693
v -0.817309 2.065000 0.182693
v -0.817309 2.065000 -0.192307
v -1.192309 2.190000 0.182693
v -0.817309 2.190000 -0.192307
v -1.192309 2.190000 -0.192307
v -0.817309 2.190000 0.182693
v -0.879809 2.190000 0.120193
v -1.129809 2.252500 0.120193
v -1.129809 2.190000 0.120193
v -1.192309 2.252500 -0.192307
v -1.129809 2.252500 -0.129807
v -1.129809 2.190000 -0.129807
v -0.879809 2.252500 -0.129807
v -0.879809 2.190000 -0.129807
v -0.879809 2.252500 0.120193
v -1.192309 2.252500 0.182693
v -0.817309 2.252500 0.182693
v -0.817309 2.252500 -0.192307
v -1.192309 2.377500 0.182693
v -0.817309 2.377500 -0.192307
v -1.192309 2.377500 -0.192307
v -0.817309 2.377500 0.182693
v -0.879809 2.377500 0.120193
v -1.129809 2.440000 0.120193
v -1.129809 2.377500 0.120193
v -1.192309 2.440000 -0.192307
v -1.129809 2.440000 -0.129807
v -1.129809 2.377500 -0.129807
v -0.879809 2.440000 -0.129807
v -0.879809 2.377500 -0.129807
v -0.879809 2.440000 0.120193
v -1.192309 2.440000 0.182693
v -0.817309 2.440000 0.182693
v -0.817309 2.440000 -0.192307
v -1.192309 2.565000 0.182693
v -0.817309 2.565000 -0.192307
v -1.192309 2.565000 -0.192307
v -0.817309 2.565000 0.182693
v -1.129809 2.565000 -0.129807
v -0.879809 2.565000 -0.129807
v -0.879809 2.565000 0.120193
v -1.129809 2.565000 0.120193
v -0.879809 2.627500 0.120193
v -1.067309 2.627500 0.057693
v -1.129809 2.627500 0.120193
v -1.129809 2.627500 -0.129807
v -0.879809 2.627500 -0.129807
v -1.067309 2.627500 -0.067307
v -0.942310 2.752500 -0.067307
v -0.942310 2.627500 -0.067307
v -0.942310 2.627500 0.057693
v -1.067309 2.752500 -0.067307
v -0.942310 2.752500 0.057693
v -1.067309 2.752500 0.057693
v 0.120191 2.002500 0.120193
v -0.129809 2.065000 0.120193
v -0.129809 2.002500 0.120193
v -0.192309 2.065000 -0.192307
v -0.129809 2.065000 -0.129807
v -0.129809 2.002500 -0.129807
v 0.120191 2.065000 -0.129807
v 0.120191 2.002500 -0.129807
v 0.120191 2.065000 0.120193
v -0.192309 2.065000 0.182693
v 0.182691 2.065000 0.182693
v 0.182691 2.065000 -0.192307
v -0.192309 2.190000 0.182693
v 0.182691 2.190000 -0.192307
v -0.192309 2.190000 -0.192307
v 0.182691 2.190000 0.182693
v 0.120191 2.190000 0.120193
v -0.129809 2.252500 0.120193
v -0.129809 2.190000 0.120193
v -0.192309 2.252500 -0.192307
v -0.129809 2.252500 -0.129807
v -0.129809 2.190000 -0.129807
v 0.120191 2.252500 -0.129807
v 0.120191 2.190000 -0.129807
v 0.120191 2.252500 0.120193
v -0.192309 2.252500 0.182693
v 0.182691 2.252500 0.182693
v 0.182691 2.252500 -0.192307
v -0.192309 2.377500 0.182693
v 0.182691 2.377500 -0.192307
v -0.192309 2.377500 -0.192307
v 0.182691 2.377500 0.182693
v 0.120191 2.377500 0.120193
v -0.129809 2.440000 0.120193
v -0.129809 2.377500 0.120193
v -0.192309 2.440000 -0.192307
v -0.129809 2.440000 -0.129807
v -0.129809 2.377500 -0.129807
v 0.120191 2.440000 -0.129807
v 0.120191 2.377500 -0.129807
v 0.120191 2.440000 0.120193
v -0.192309 2.440000 0.182693
v 0.182691 2.440000 0.182693
v 0.182691 2.440000 -0.192307
v -0.192309 2.565000 0.182693
v 0.182691 2.565000 -0.192307
v -0.192309 2.565000 -0.192307
v 0.182691 2.565000 0.182693
v -0.129809 2.565000 -0.129807
v 0.120191 2.565000 -0.129807
v 0.120191 2.565000 0.120193
v -0.129809 2.565000 0.120193
v 0.120191 2.627500 0.120193
v -0.067309 2.627500 0.057693
v -0.129809 2.627500 0.120193
v -0.129809 2.627500 -0.129807
v 0.120191 2.627500 -0.129807
v -0.067309 2.627500 -0.067307
v 0.057691 2.752500 -0.067307
v 0.057691 2.627500 -0.067307
v 0.057691 2.627500 0.057693
v -0.067309 2.752500 -0.067307
v 0.057691 2.752500 0.057693
v -0.067309 2.752500 0.057693
v 1.120191 2.002500 0.120192
v 0.870191 2.065000 0.120192
v 0.870191 2.002500 0.120192
v 0.807691 2.065000 -0.192307
v 0.870191 2.065000 -0.129807
v 0.870191 2.002500 -0.129807
v 1.120191 2.065000 -0.129808
v 1.120191 2.002500 -0.129808
v 1.120191 2.065000 0.120192
v 0.807691 2.065000 0.182692
v 1.182691 2.065000 0.182692
v 1.182691 2.065000 -0.192308
v 0.807691 2.190000 0.182692
v 1.182691 2.190000 -0.192308
v 0.807691 2.190000 -0.192307
v 1.182691 2.190000 0.182692
v 1.120191 2.190000 0.120192
v 0.870191 2.252500 0.120192
v 0.870191 2.190000 0.120192
v 0.807691 2.252500 -0.192307
v 0.870191 2.252500 -0.129807
v 0.870191 2.190000 -0.129807
v 1.120191 2.252500 -0.129808
v 1.120191 2.190000 -0.129808
v 1.120191 2.252500 0.120192
v 0.807691 2.252500 0.182692
v 1.182691 2.252500 0.182692
v 1.182691 2.252500 -0.192308
v 0.807691 2.377500 0.182692
v 1.182691 2.377500 -0.192308
v 0.807691 2.377500 -0.192307
v 1.182691 2.377500 0.182692
v 1.120191 2.377500 0.120192
v 0.870191 2.440000 0.120192
v 0.870191 2.377500 0.120192
v 0.807691 2.440000 -0.192307
v 0.870191 2.440000 -0.129807
v 0.870191 2.377500 -0.129807
v 1.120191 2.440000 -0.129808
v 1.120191 2.377500 -0.129808
v 1.120191 2.440000 0.120192
v 0.807691 2.440000 0.182692
v 1.182691 2.440000 0.182692
v 1.182691 2.440000 -0.192308
v 0.807691 2.565000 0.182692
v 1.182691 2.565000 -0.192308
v 0.807691 2.565000 -0.192307
v 1.182691 2.565000 0.182692
v 0.870191 2.565000 -0.129807
v 1.120191 2.565000 -0.129808
v 1.120191 2.565000 0.120192
v 0.870191 2.565000 0.120192
v 1.120191 2.627500 0.120192
v 0.932691 2.627500 0.057692
v 0.870191 2.627500 0.120192
v 0.870191 2.627500 -0.129807
v 1.120191 2.627500 -0.129808
v 0.932691 2.627500 -0.067308
v 1.057691 2.752500 -0.067308
v 1.057691 2.627500 -0.067308
v 1.057691 2.627500 0.057692
v 0.932691 2.752500 -0.067308
v 1.057691 2.752500 0.057692
v 0.932691 2.752500 0.057692
v -1.504809 2.000000 -0.504807
v -1.504809 0.000000 -0.504807
v -1.504809 2.000000 0.495193
v -1.504809 -0.000000 0.495193
v 1.495191 2.000000 0.495192
v 1.495191 -0.000000 0.495192
v 1.495191 2.000000 -0.504808
v 1.495191 0.000000 -0.504808
v -0.187309 0.687500 -0.879808
v 0.187691 0.312500 -0.879808
v -0.187309 0.312500 -0.879808
v 0.187691 0.312500 -0.504808
v 0.187691 0.687500 -0.879808
v 0.187691 0.687500 -0.504808
v -0.187309 0.687500 -0.504808
v -0.187309 0.312500 -0.504808
v -1.375000 1.750000 0.875000
v -1.375000 0.750000 0.875000
v -1.125000 1.750000 0.875000
v -1.125000 0.750000 0.875000
v -1.125000 1.750000 -0.875000
v -1.125000 0.750000 -0.875000
v -1.375000 1.750000 -0.875000
v -1.375000 0.750000 -0.875000
v -0.875000 1.750000 0.875000
v -0.875000 0.750000 0.875000
v -0.625000 1.750000 0.875000
v -0.625000 0.750000 0.875000
v -0.625000 1.750000 -0.875000
v -0.625000 0.750000 -0.875000
v -0.875000 1.750000 -0.875000
v -0.875000 0.750000 -0.875000
v -0.375000 1.750000 0.875000
v -0.375000 0.750000 0.875000
v -0.125000 1.750000 0.875000
v -0.125000 0.750000 0.875000
v -0.125000 1.750000 -0.875000
v -0.125000 0.750000 -0.875000
v -0.375000 1.750000 -0.875000
v -0.375000 0.750000 -0.875000
v 0.125000 1.750000 0.875000
v 0.125000 0.750000 0.875000
v 0.375000 1.750000 0.875000
v 0.375000 0.750000 0.875000
v 0.375000 1.750000 -0.875000
v 0.375000 0.750000 -0.875000
v 0.125000 1.750000 -0.875000
v 0.125000 0.750000 -0.875000
v 0.625000 1.750000 0.875000
v 0.625000 0.750000 0.875000
v 0.875000 1.750000 0.875000
v 0.875000 0.750000 0.875000
v 0.875000 1.750000 -0.875000
v 0.875000 0.750000 -0.875000
v 0.625000 1.750000 -0.875000
v 0.625000 0.750000 -0.875000
v 1.125000 1.750000 0.875000
v 1.125000 0.750000 0.875000
v 1.375000 1.750000 0.875000
v 1.375000 0.750000 0.875000
v 1.375000 1.750000 -0.875000
v 1.375000 0.750000 -0.875000
v 1.125000 1.750000 -0.875000
v 1.125000 0.750000 -0.875000
v 0.187691 0.687500 0.871192
v -0.187309 0.312500 0.871192
v 0.187691 0.312500 0.871192
v -0.187309 0.312500 0.496192
v -0.187309 0.687500 0.871192
v -0.187309 0.687500 0.496192
v 0.187691 0.687500 0.496192
v 0.187691 0.312500 0.496192
vt 0.854369 0.650000
vt 0.815534 0.666667
vt 0.815534 0.650000
vt 0.854369 0.666667
vt 0.805825 0.683333
vt 0.815534 0.666667
vt 0.854369 0.650000
vt 0.815534 0.666667
vt 0.815534 0.650000
vt 0.854369 0.650000
vt 0.815534 0.666667
vt 0.815534 0.650000
vt 0.854369 0.650000
vt 0.815534 0.650000
vt 0.854369 0.666667
vt 0.805825 0.683333
vt 0.854369 0.666667
vt 0.805825 0.683333
vt 0.854369 0.666667
vt 0.805825 0.683333
vt 0.864078 0.683333
vt 0.805825 0.716667
vt 0.864078 0.683333
vt 0.805825 0.716667
vt 0.864078 0.683333
vt 0.805825 0.716667
vt 0.864078 0.683333
vt 0.805825 0.716667
vt 0.854369 0.733333
vt 0.815534 0.750000
vt 0.815534 0.733333
vt 0.854369 0.750000
vt 0.805825 0.766667
vt 0.815534 0.750000
vt 0.854369 0.733333
vt 0.815534 0.750000
vt 0.815534 0.733333
vt 0.854369 0.733333
vt 0.815534 0.750000
vt 0.815534 0.733333
vt 0.854369 0.733333
vt 0.815534 0.733333
vt 0.854369 0.750000
vt 0.805825 0.766667
vt 0.854369 0.750000
vt 0.805825 0.766667
vt 0.854369 0.750000
vt 0.805825 0.766667
vt 0.864078 0.766667
vt 0.805825 0.800000
vt 0.864078 0.766667
vt 0.805825 0.800000
vt 0.864078 0.766667
vt 0.805825 0.800000
vt 0.864078 0.766667
vt 0.805825 0.800000
vt 0.854369 0.816667
vt 0.815534 0.833333
vt 0.815534 0.816667
vt 0.854369 0.833333
vt 0.805825 0.850000
vt 0.815534 0.833333
vt 0.854369 0.816667
vt 0.815534 0.833333
vt 0.815534 0.816667
vt 0.854369 0.816667
vt 0.815534 0.833333
vt 0.815534 0.816667
vt 0.854369 0.816667
vt 0.815534 0.816667
vt 0.854369 0.833333
vt 0.805825 0.850000
vt 0.854369 0.833333
vt 0.805825 0.850000
vt 0.854369 0.833333
vt 0.805825 0.850000
vt 0.864078 0.850000
vt 0.805825 0.883333
vt 0.864078 0.850000
vt 0.805825 0.883333
vt 0.864078 0.850000
vt 0.805825 0.883333
vt 0.864078 0.850000
vt 0.805825 0.883333
vt 0.864078 0.716667
vt 0.864078 0.716667
vt 0.864078 0.716667
vt 0.864078 0.716667
vt 0.864078 0.800000
vt 0.864078 0.800000
vt 0.864078 0.800000
vt 0.864078 0.800000
vt 0.854369 0.900000
vt 0.864078 0.883333
vt 0.854369 0.900000
vt 0.864078 0.883333
vt 0.854369 0.900000
vt 0.864078 0.883333
vt 0.854369 0.900000
vt 0.864078 0.883333
vt 0.815534 0.916667
vt 0.815534 0.900000
vt 0.854369 0.916667
vt 0.825243 0.933333
vt 0.815534 0.916667
vt 0.815534 0.916667
vt 0.815534 0.900000
vt 0.815534 0.900000
vt 0.815534 0.916667
vt 0.815534 0.900000
vt 0.844660 0.933333
vt 0.825243 0.966667
vt 0.825243 0.933333
vt 0.854369 0.916667
vt 0.854369 0.916667
vt 0.825243 0.933333
vt 0.854369 0.916667
vt 0.825243 0.933333
vt 0.825243 1.000000
vt 0.844660 0.966667
vt 0.844660 1.000000
vt 0.844660 0.933333
vt 0.825243 0.966667
vt 0.844660 0.933333
vt 0.825243 0.966667
vt 0.844660 0.933333
vt 0.825243 0.966667
vt 0.854369 0.650000
vt 0.815534 0.666667
vt 0.815534 0.650000
vt 0.854369 0.666667
vt 0.805825 0.683333
vt 0.815534 0.666667
vt 0.854369 0.650000
vt 0.815534 0.666667
vt 0.815534 0.650000
vt 0.854369 0.650000
vt 0.815534 0.666667
vt 0.815534 0.650000
vt 0.854369 0.650000
vt 0.815534 0.650000
vt 0.854369 0.666667
vt 0.805825 0.683333
vt 0.854369 0.666667
vt 0.805825 0.683333
vt 0.854369 0.666667
vt 0.805825 0.683333
vt 0.864078 0.683333
vt 0.805825 0.716667
vt 0.864078 0.683333
vt 0.805825 0.716667
vt 0.864078 0.683333
vt 0.805825 0.716667
vt 0.864078 0.683333
vt 0.805825 0.716667
vt 0.854369 0.733333
vt 0.815534 0.750000
vt 0.815534 0.733333
vt 0.854369 0.750000
vt 0.805825 0.766667
vt 0.815534 0.750000
vt 0.854369 0.733333
vt 0.815534 0.750000
vt 0.815534 0.733333
vt 0.854369 0.733333
vt 0.815534 0.750000
vt 0.815534 0.733333
vt 0.854369 0.733333
vt 0.815534 0.733333
vt 0.854369 0.750000
vt 0.805825 0.766667
vt 0.854369 0.750000
vt 0.805825 0.766667
vt 0.854369 0.750000
vt 0.805825 0.766667
vt 0.864078 0.766667
vt 0.805825 0.800000
vt 0.864078 0.766667
vt 0.805825 0.800000
vt 0.864078 0.766667
vt 0.805825 0.800000
vt 0.864078 0.766667
vt 0.805825 0.800000
vt 0.854369 0.816667
vt 0.815534 0.833333
vt 0.815534 0.816667
vt 0.854369 0.833333
vt 0.805825 0.850000
vt 0.815534 0.833333
vt 0.854369 0.816667
vt 0.815534 0.833333
vt 0.815534 0.816667
vt 0.854369 0.816667
vt 0.815534 0.833333
vt 0.815534 0.816667
vt 0.854369 0.816667
vt 0.815534 0.816667
vt 0.854369 0.833333
vt 0.805825 0.850000
vt 0.854369 0.833333
vt 0.805825 0.850000
vt 0.854369 0.833333
vt 0.805825 0.850000
vt 0.864078 0.850000
vt 0.805825 0.883333
vt 0.864078 0.850000
vt 0.805825 0.883333
vt 0.864078 0.850000
vt 0.805825 0.883333
vt 0.864078 0.850000
vt 0.805825 0.883333
vt 0.864078 0.716667
vt 0.864078 0.716667
vt 0.864078 0.716667
vt 0.864078 0.716667
vt 0.864078 0.800000
vt 0.864078 0.800000
vt 0.864078 0.800000
vt 0.864078 0.800000
vt 0.854369 0.900000
vt 0.864078 0.883333
vt 0.854369 0.900000
vt 0.864078 0.883333
vt 0.854369 0.900000
vt 0.864078 0.883333
vt 0.854369 0.900000
vt 0.864078 0.883333
vt 0.815534 0.916667
vt 0.815534 0.900000
vt 0.854369 0.916667
vt 0.825243 0.933333
vt 0.815534 0.916667
vt 0.815534 0.916667
vt 0.815534 0.900000
vt 0.815534 0.900000
vt 0.815534 0.916667
vt 0.815534 0.900000
vt 0.844660 0.933333
vt 0.825243 0.966667
vt 0.825243 0.933333
vt 0.854369 0.916667
vt 0.854369 0.916667
vt 0.825243 0.933333
vt 0.854369 0.916667
vt 0.825243 0.933333
vt 0.825243 1.000000
vt 0.844660 0.966667
vt 0.844660 1.000000
vt 0.844660 0.933333
vt 0.825243 0.966667
vt 0.844660 0.933333
vt 0.825243 0.966667
vt 0.844660 0.933333
vt 0.825243 0.966667
vt 0.854369 0.650000
vt 0.815534 0.666667
vt 0.815534 0.650000
vt 0.854369 0.666667
vt 0.805825 0.683333
vt 0.815534 0.666667
vt 0.854369 0.650000
vt 0.815534 0.666667
vt 0.815534 0.650000
vt 0.854369 0.650000
vt 0.815534 0.666667
vt 0.815534 0.650000
vt 0.854369 0.650000
vt 0.815534 0.650000
vt 0.854369 0.666667
vt 0.805825 0.683333
vt 0.854369 0.666667
vt 0.805825 0.683333
vt 0.854369 0.666667
vt 0.805825 0.683333
vt 0.864078 0.683333
vt 0.805825 0.716667
vt 0.864078 0.683333
vt 0.805825 0.716667
vt 0.864078 0.683333
vt 0.805825 0.716667
vt 0.864078 0.683333
vt 0.805825 0.716667
vt 0.854369 0.733333
vt 0.815534 0.750000
vt 0.815534 0.733333
vt 0.854369 0.750000
vt 0.805825 0.766667
vt 0.815534 0.750000
vt 0.854369 0.733333
vt 0.815534 0.750000
vt 0.815534 0.733333
vt 0.854369 0.733333
vt 0.815534 0.750000
vt 0.815534 0.733333
vt 0.854369 0.733333
vt 0.815534 0.733333
vt 0.854369 0.750000
vt 0.805825 0.766667
vt 0.854369 0.750000
vt 0.805825 0.766667
vt 0.854369 0.750000
vt 0.805825 0.766667
vt 0.864078 0.766667
vt 0.805825 0.800000
vt 0.864078 0.766667
vt 0.805825 0.800000
vt 0.864078 0.766667
vt 0.805825 0.800000
vt 0.864078 0.766667
vt 0.805825 0.800000
vt 0.854369 0.816667
vt 0.815534 0.833333
vt 0.815534 0.816667
vt 0.854369 0.833333
vt 0.805825 0.850000
vt 0.815534 0.833333
vt 0.854369 0.816667
vt 0.815534 0.833333
vt 0.815534 0.816667
vt 0.854369 0.816667
vt 0.815534 0.833333
vt 0.815534 0.816667
vt 0.854369 0.816667
vt 0.815534 0.816667
vt 0.854369 0.833333
vt 0.805825 0.850000
vt 0.854369 0.833333
vt 0.805825 0.850000
vt 0.854369 0.833333
vt 0.805825 0.850000
vt 0.864078 0.850000
vt 0.805825 0.883333
vt 0.864078 0.850000
vt 0.805825 0.883333
vt 0.864078 0.850000
vt 0.805825 0.883333
vt 0.864078 0.850000
vt 0.805825 0.883333
vt 0.864078 0.716667
vt 0.864078 0.716667
vt 0.864078 0.716667
vt 0.864078 0.716667
vt 0.864078 0.800000
vt 0.864078 0.800000
vt 0.864078 0.800000
vt 0.864078 0.800000
vt 0.854369 0.900000
vt 0.864078 0.883333
vt 0.854369 0.900000
vt 0.864078 0.883333
vt 0.854369 0.900000
vt 0.864078 0.883333
vt 0.854369 0.900000
vt 0.864078 0.883333
vt 0.815534 0.916667
vt 0.815534 0.900000
vt 0.854369 0.916667
vt 0.825243 0.933333
vt 0.815534 0.916667
vt 0.815534 0.916667
vt 0.815534 0.900000
vt 0.815534 0.900000
vt 0.815534 0.916667
vt 0.815534 0.900000
vt 0.844660 0.933333
vt 0.825243 0.966667
vt 0.825243 0.933333
vt 0.854369 0.916667
vt 0.854369 0.916667
vt 0.825243 0.933333
vt 0.854369 0.916667
vt 0.825243 0.933333
vt 0.825243 1.000000
vt 0.844660 0.966667
vt 0.844660 1.000000
vt 0.844660 0.933333
vt 0.825243 0.966667
vt 0.844660 0.933333
vt 0.825243 0.966667
vt 0.844660 0.933333
vt 0.825243 0.966667
vt 0.844660 0.966667
vt 0.844660 0.966667
vt 0.844660 0.966667
vt 0.844660 0.966667
vt 0.844660 0.966667
vt 0.844660 0.966667
vt 0.844660 0.966667
vt 0.844660 0.966667
vt 0.844660 0.966667
vt 0.708738 0.533333
vt 0.359223 0.533333
vt 0.708738 1.000000
vt 0.359223 1.000000
vt 0.000000 0.466667
vt 0.000000 -0.000000
vt 0.349515 0.466667
vt 0.349515 0.000000
vt 0.708738 1.000000
vt 0.359223 1.000000
vt 0.708738 0.533333
vt 0.359223 0.533333
vt 0.349515 0.466667
vt 0.349515 0.000000
vt 0.000000 0.466667
vt 0.000000 -0.000000
vt 0.349515 0.533333
vt 0.000000 0.533333
vt 0.349515 1.000000
vt -0.000000 1.000000
vt 0.000000 0.533333
vt 0.349515 0.533333
vt -0.000000 1.000000
vt 0.349515 1.000000
vt 0.902913 0.933333
vt 0.961165 0.833333
vt 0.902913 0.833333
vt 0.864078 0.833333
vt 0.902913 0.933333
vt 0.864078 0.933333
vt 1.000000 0.933333
vt 0.961165 0.833333
vt 1.000000 0.833333
vt 0.902913 1.000000
vt 0.961165 0.933333
vt 0.961165 1.000000
vt 0.961165 0.766667
vt 0.902913 0.833333
vt 0.902913 0.766667
vt 0.961165 0.933333
vt 0.815534 0.450000
vt 0.815534 0.200000
vt 0.961165 0.450000
vt 0.961165 0.200000
vt 0.786408 0.533333
vt 0.786408 0.600000
vt 0.776699 0.533333
vt 0.776699 0.600000
vt 0.961165 0.450000
vt 0.961165 0.200000
vt 0.815534 0.450000
vt 0.815534 0.200000
vt 0.776699 0.533333
vt 0.776699 0.600000
vt 0.786408 0.533333
vt 0.786408 0.600000
vt 0.815534 -0.000000
vt 0.815534 0.183333
vt 0.961165 0.000000
vt 0.961165 0.183333
vt 0.815534 0.183333
vt 0.815534 -0.000000
vt 0.961165 0.183333
vt 0.961165 0.000000
vt 0.815534 0.450000
vt 0.815534 0.200000
vt 0.961165 0.450000
vt 0.961165 0.200000
vt 0.786408 0.533333
vt 0.786408 0.600000
vt 0.776699 0.533333
vt 0.776699 0.600000
vt 0.961165 0.450000
vt 0.961165 0.200000
vt 0.815534 0.450000
vt 0.815534 0.200000
vt 0.776699 0.533333
vt 0.776699 0.600000
vt 0.786408 0.533333
vt 0.786408 0.600000
vt 0.815534 -0.000000
vt 0.815534 0.183333
vt 0.961165 0.000000
vt 0.961165 0.183333
vt 0.815534 0.183333
vt 0.815534 -0.000000
vt 0.961165 0.183333
vt 0.961165 0.000000
vt 0.815534 0.450000
vt 0.815534 0.200000
vt 0.961165 0.450000
vt 0.961165 0.200000
vt 0.786408 0.533333
vt 0.786408 0.600000
vt 0.776699 0.533333
vt 0.776699 0.600000
vt 0.961165 0.450000
vt 0.961165 0.200000
vt 0.815534 0.450000
vt 0.815534 0.200000
vt 0.776699 0.533333
vt 0.776699 0.600000
vt 0.786408 0.533333
vt 0.786408 0.600000
vt 0.815534 -0.000000
vt 0.815534 0.183333
vt 0.961165 0.000000
vt 0.961165 0.183333
vt 0.815534 0.183333
vt 0.815534 -0.000000
vt 0.961165 0.183333
vt 0.961165 0.000000
vt 0.815534 0.450000
vt 0.815534 0.200000
vt 0.961165 0.450000
vt 0.961165 0.200000
vt 0.786408 0.533333
vt 0.786408 0.600000
vt 0.776699 0.533333
vt 0.776699 0.600000
vt 0.961165 0.450000
vt 0.961165 0.200000
vt 0.815534 0.450000
vt 0.815534 0.200000
vt 0.776699 0.533333
vt 0.776699 0.600000
vt 0.786408 0.533333
vt 0.786408 0.600000
vt 0.815534 -0.000000
vt 0.815534 0.183333
vt 0.961165 0.000000
vt 0.961165 0.183333
vt 0.815534 0.183333
vt 0.815534 -0.000000
vt 0.961165 0.183333
vt 0.961165 0.000000
vt 0.815534 0.450000
vt 0.815534 0.200000
vt 0.961165 0.450000
vt 0.961165 0.200000
vt 0.786408 0.533333
vt 0.786408 0.600000
vt 0.776699 0.533333
vt 0.776699 0.600000
vt 0.961165 0.450000
vt 0.961165 0.200000
vt 0.815534 0.450000
vt 0.815534 0.200000
vt 0.776699 0.533333
vt 0.776699 0.600000
vt 0.786408 0.533333
vt 0.786408 0.600000
vt 0.815534 -0.000000
vt 0.815534 0.183333
vt 0.961165 0.000000
vt 0.961165 0.183333
vt 0.815534 0.183333
vt 0.815534 -0.000000
vt 0.961165 0.183333
vt 0.961165 0.000000
vt 0.815534 0.450000
vt 0.815534 0.200000
vt 0.961165 0.450000
vt 0.961165 0.200000
vt 0.786408 0.533333
vt 0.786408 0.600000
vt 0.776699 0.533333
vt 0.776699 0.600000
vt 0.961165 0.450000
vt 0.961165 0.200000
vt 0.815534 0.450000
vt 0.815534 0.200000
vt 0.776699 0.533333
vt 0.776699 0.600000
vt 0.786408 0.533333
vt 0.786408 0.600000
vt 0.815534 -0.000000
vt 0.815534 0.183333
vt 0.961165 0.000000
vt 0.961165 0.183333
vt 0.815534 0.183333
vt 0.815534 -0.000000
vt 0.961165 0.183333
vt 0.961165 0.000000
vt 0.961165 0.933333
vt 0.902913 0.833333
vt 0.961165 0.833333
vt 0.864078 0.833333
vt 0.902913 0.933333
vt 0.864078 0.933333
vt 1.000000 0.933333
vt 1.000000 0.833333
vt 0.902913 1.000000
vt 0.961165 1.000000
vt 0.961165 0.766667
vt 0.902913 0.766667
vn 0.4472 -0.0002 0.8944
vn -0.2672 -0.8018 0.5345
vn -0.8944 0.0000 0.4472
vn -0.2673 -0.8018 -0.5345
vn -0.5345 -0.8018 -0.2672
vn -0.4472 0.0000 -0.8944
vn 0.2672 -0.8018 -0.5345
vn 0.8944 0.0001 -0.4472
vn 0.5345 -0.8018 0.2672
vn -0.5345 -0.8018 0.2673
vn 0.2673 -0.8018 0.5345
vn 0.5345 -0.8018 -0.2673
vn -0.2673 0.8018 0.5345
vn 0.2673 0.8018 -0.5345
vn -0.5345 0.8018 -0.2673
vn 0.5345 0.8018 0.2673
vn 0.2673 0.8018 0.5345
vn -0.5345 0.8018 0.2673
vn -0.2673 0.8018 -0.5345
vn 0.5345 0.8018 -0.2673
vn 0.5345 0.8018 0.2672
vn -0.2672 0.8018 0.5345
vn -0.5345 0.8018 -0.2672
vn 0.2672 0.8018 -0.5345
vn 0.4082 0.4082 -0.8165
vn -0.6667 0.6667 -0.3334
vn 0.6667 0.6667 0.3334
vn -0.4082 0.4082 0.8165
vn 0.4472 0.0002 0.8944
vn -0.8944 0.0002 0.4472
vn -0.4472 0.0001 -0.8944
vn 0.8944 0.0002 -0.4472
vn 0.5345 0.8017 -0.2674
vn 0.5345 0.8018 -0.2672
vn -1.0000 0.0000 0.0000
vn 0.0000 -0.0000 1.0000
vn 1.0000 0.0000 0.0000
vn -0.0000 0.0000 -1.0000
vn 0.0000 1.0000 0.0000
vn -0.0000 -1.0000 -0.0000
vn -0.3334 0.6667 -0.6667
vn 0.3334 -0.6667 -0.6667
vn -0.8165 -0.4082 -0.4082
vn 0.8944 -0.4472 -0.0000
vn 0.8165 0.4082 -0.4082
vn 0.4472 0.8944 0.0002
vn -0.8944 0.4472 0.0001
vn -0.4472 -0.8944 -0.0000
vn 0.3334 0.6667 0.6667
vn -0.3334 -0.6667 0.6667
vn 0.8165 -0.4082 0.4082
vn -0.8944 -0.4472 -0.0001
vn -0.8165 0.4082 0.4082
vn -0.4472 0.8944 0.0000
vn 0.8944 0.4472 0.0000
vn 0.4472 -0.8944 -0.0000
usemtl Default_OBJ
s 1
f 1/1/1 2/2/2 3/3/3
f 2/4/2 4/5/4 5/6/5
f 6/7/6 7/8/7 8/9/8
f 8/10/8 9/11/9 1/12/1
f 3/13/3 5/6/5 6/14/6
f 9/15/9 10/16/10 2/2/2
f 7/17/7 11/18/11 9/11/9
f 5/19/5 12/20/12 7/8/7
f 11/21/11 13/22/13 10/16/10
f 4/23/4 14/24/14 12/20/12
f 10/25/10 15/26/15 4/5/4
f 12/27/12 16/28/16 11/18/11
f 17/29/17 18/30/2 19/31/18
f 18/32/2 20/33/4 21/34/5
f 22/35/19 23/36/7 24/37/20
f 24/38/20 25/39/9 17/40/17
f 19/41/18 21/34/5 22/42/19
f 25/43/9 26/44/10 18/30/2
f 23/45/7 27/46/11 25/39/9
f 21/47/5 28/48/12 23/36/7
f 27/49/11 29/50/13 26/44/10
f 20/51/4 30/52/14 28/48/12
f 26/53/10 31/54/15 20/33/4
f 28/55/12 32/56/16 27/46/11
f 33/57/17 34/58/2 35/59/18
f 34/60/2 36/61/4 37/62/5
f 38/63/19 39/64/7 40/65/20
f 40/66/20 41/67/9 33/68/17
f 35/69/18 37/62/5 38/70/19
f 41/71/9 42/72/10 34/58/2
f 39/73/7 43/74/11 41/67/9
f 37/75/5 44/76/12 39/64/7
f 43/77/11 45/78/13 42/72/10
f 36/79/4 46/80/14 44/76/12
f 42/81/10 47/82/15 36/61/4
f 44/83/12 48/84/16 43/74/11
f 17/29/17 13/22/13 16/85/16
f 24/38/20 16/28/16 14/86/14
f 22/35/19 14/24/14 15/87/15
f 19/41/18 15/26/15 13/88/13
f 33/57/17 29/50/13 32/89/16
f 40/66/20 32/56/16 30/90/14
f 38/63/19 30/52/14 31/91/15
f 35/69/18 31/54/15 29/92/13
f 49/93/19 46/80/14 47/94/15
f 50/95/20 48/84/16 46/96/14
f 51/97/17 45/78/13 48/98/16
f 52/99/18 47/82/15 45/100/13
f 50/95/20 53/101/21 51/102/17
f 53/103/21 54/104/18 55/105/22
f 52/99/18 56/106/23 49/107/19
f 51/97/17 55/105/22 52/108/18
f 49/93/19 57/109/24 50/110/20
f 58/111/19 59/112/25 60/113/20
f 56/114/23 60/113/20 57/109/24
f 57/115/24 61/116/17 53/101/21
f 55/117/22 58/118/19 56/106/23
f 62/119/26 63/120/27 59/121/25
f 60/122/20 63/123/27 61/116/17
f 54/124/18 62/125/26 58/118/19
f 61/126/17 64/127/28 54/104/18
f 65/128/1 66/129/2 67/130/3
f 66/131/2 68/132/4 69/133/5
f 70/134/6 71/135/7 72/136/8
f 72/137/8 73/138/9 65/139/1
f 67/140/3 69/133/5 70/141/6
f 73/142/9 74/143/10 66/129/2
f 71/144/7 75/145/11 73/138/9
f 69/146/5 76/147/12 71/135/7
f 75/148/11 77/149/13 74/143/10
f 68/150/4 78/151/14 76/147/12
f 74/152/10 79/153/15 68/132/4
f 76/154/12 80/155/16 75/145/11
f 81/156/17 82/157/2 83/158/18
f 82/159/2 84/160/4 85/161/5
f 86/162/19 87/163/7 88/164/20
f 88/165/20 89/166/9 81/167/17
f 83/168/18 85/161/5 86/169/19
f 89/170/9 90/171/10 82/157/2
f 87/172/7 91/173/11 89/166/9
f 85/174/5 92/175/12 87/163/7
f 91/176/11 93/177/13 90/171/10
f 84/178/4 94/179/14 92/175/12
f 90/180/10 95/181/15 84/160/4
f 92/182/12 96/183/16 91/173/11
f 97/184/17 98/185/2 99/186/18
f 98/187/2 100/188/4 101/189/5
f 102/190/19 103/191/7 104/192/20
f 104/193/20 105/194/9 97/195/17
f 99/196/18 101/189/5 102/197/19
f 105/198/9 106/199/10 98/185/2
f 103/200/7 107/201/11 105/194/9
f 101/202/5 108/203/12 103/191/7
f 107/204/11 109/205/13 106/199/10
f 100/206/4 110/207/14 108/203/12
f 106/208/10 111/209/15 100/188/4
f 108/210/12 112/211/16 107/201/11
f 81/156/17 77/149/13 80/212/16
f 88/165/20 80/155/16 78/213/14
f 86/162/19 78/151/14 79/214/15
f 83/168/18 79/153/15 77/215/13
f 97/184/17 93/177/13 96/216/16
f 104/193/20 96/183/16 94/217/14
f 102/190/19 94/179/14 95/218/15
f 99/196/18 95/181/15 93/219/13
f 113/220/19 110/207/14 111/221/15
f 114/222/20 112/211/16 110/223/14
f 115/224/17 109/205/13 112/225/16
f 116/226/18 111/209/15 109/227/13
f 114/222/20 117/228/21 115/229/17
f 117/230/21 118/231/18 119/232/22
f 116/226/18 120/233/23 113/234/19
f 115/224/17 119/232/22 116/235/18
f 113/220/19 121/236/24 114/237/20
f 122/238/19 123/239/25 124/240/20
f 120/241/23 124/240/20 121/236/24
f 121/242/24 125/243/17 117/228/21
f 119/244/22 122/245/19 120/233/23
f 126/246/26 127/247/27 123/248/25
f 124/249/20 127/250/27 125/243/17
f 118/251/18 126/252/26 122/245/19
f 125/253/17 128/254/28 118/231/18
f 129/255/29 130/256/2 131/257/30
f 130/258/2 132/259/4 133/260/5
f 134/261/31 135/262/7 136/263/32
f 136/264/32 137/265/9 129/266/29
f 131/267/30 133/260/5 134/268/31
f 137/269/9 138/270/10 130/256/2
f 135/271/7 139/272/11 137/265/9
f 133/273/5 140/274/12 135/262/7
f 139/275/11 141/276/13 138/270/10
f 132/277/4 142/278/14 140/274/12
f 138/279/10 143/280/15 132/259/4
f 140/281/12 144/282/16 139/272/11
f 145/283/17 146/284/2 147/285/18
f 146/286/2 148/287/4 149/288/5
f 150/289/19 151/290/7 152/291/33
f 152/292/33 153/293/9 145/294/17
f 147/295/18 149/288/5 150/296/19
f 153/297/9 154/298/10 146/284/2
f 151/299/7 155/300/11 153/293/9
f 149/301/5 156/302/12 151/290/7
f 155/303/11 157/304/13 154/298/10
f 148/305/4 158/306/14 156/302/12
f 154/307/10 159/308/15 148/287/4
f 156/309/12 160/310/16 155/300/11
f 161/311/17 162/312/2 163/313/18
f 162/314/2 164/315/4 165/316/5
f 166/317/19 167/318/7 168/319/33
f 168/320/33 169/321/9 161/322/17
f 163/323/18 165/316/5 166/324/19
f 169/325/9 170/326/10 162/312/2
f 167/327/7 171/328/11 169/321/9
f 165/329/5 172/330/12 167/318/7
f 171/331/11 173/332/13 170/326/10
f 164/333/4 174/334/14 172/330/12
f 170/335/10 175/336/15 164/315/4
f 172/337/12 176/338/16 171/328/11
f 145/283/17 141/276/13 144/339/16
f 152/292/33 144/282/16 142/340/14
f 150/289/19 142/278/14 143/341/15
f 147/295/18 143/280/15 141/342/13
f 161/311/17 157/304/13 160/343/16
f 168/320/33 160/310/16 158/344/14
f 166/317/19 158/306/14 159/345/15
f 163/323/18 159/308/15 157/346/13
f 177/347/19 174/334/14 175/348/15
f 178/349/20 176/338/16 174/350/14
f 179/351/17 173/332/13 176/352/16
f 180/353/18 175/336/15 173/354/13
f 178/349/20 181/355/21 179/356/17
f 181/357/21 182/358/18 183/359/22
f 180/353/18 184/360/23 177/361/19
f 179/351/17 183/359/22 180/362/18
f 177/347/19 185/363/24 178/364/20
f 186/365/19 187/366/25 188/367/34
f 184/368/23 188/367/34 185/363/24
f 185/369/24 189/370/17 181/355/21
f 183/371/22 186/372/19 184/360/23
f 190/373/26 191/374/27 187/375/25
f 188/376/34 191/377/27 189/370/17
f 182/378/18 190/379/26 186/372/19
f 189/380/17 192/381/28 182/358/18
f 1/1/1 9/15/9 2/2/2
f 2/4/2 10/25/10 4/5/4
f 6/7/6 5/19/5 7/8/7
f 8/10/8 7/17/7 9/11/9
f 3/13/3 2/4/2 5/6/5
f 9/15/9 11/21/11 10/16/10
f 7/17/7 12/27/12 11/18/11
f 5/19/5 4/23/4 12/20/12
f 11/21/11 16/85/16 13/22/13
f 4/23/4 15/87/15 14/24/14
f 10/25/10 13/88/13 15/26/15
f 12/27/12 14/86/14 16/28/16
f 17/29/17 25/43/9 18/30/2
f 18/32/2 26/53/10 20/33/4
f 22/35/19 21/47/5 23/36/7
f 24/38/20 23/45/7 25/39/9
f 19/41/18 18/32/2 21/34/5
f 25/43/9 27/49/11 26/44/10
f 23/45/7 28/55/12 27/46/11
f 21/47/5 20/51/4 28/48/12
f 27/49/11 32/89/16 29/50/13
f 20/51/4 31/91/15 30/52/14
f 26/53/10 29/92/13 31/54/15
f 28/55/12 30/90/14 32/56/16
f 33/57/17 41/71/9 34/58/2
f 34/60/2 42/81/10 36/61/4
f 38/63/19 37/75/5 39/64/7
f 40/66/20 39/73/7 41/67/9
f 35/69/18 34/60/2 37/62/5
f 41/71/9 43/77/11 42/72/10
f 39/73/7 44/83/12 43/74/11
f 37/75/5 36/79/4 44/76/12
f 43/77/11 48/98/16 45/78/13
f 36/79/4 47/94/15 46/80/14
f 42/81/10 45/100/13 47/82/15
f 44/83/12 46/96/14 48/84/16
f 17/29/17 19/31/18 13/22/13
f 24/38/20 17/40/17 16/28/16
f 22/35/19 24/37/20 14/24/14
f 19/41/18 22/42/19 15/26/15
f 33/57/17 35/59/18 29/50/13
f 40/66/20 33/68/17 32/56/16
f 38/63/19 40/65/20 30/52/14
f 35/69/18 38/70/19 31/54/15
f 49/93/19 50/110/20 46/80/14
f 50/95/20 51/102/17 48/84/16
f 51/97/17 52/108/18 45/78/13
f 52/99/18 49/107/19 47/82/15
f 50/95/20 57/115/24 53/101/21
f 53/103/21 61/126/17 54/104/18
f 52/99/18 55/117/22 56/106/23
f 51/97/17 53/103/21 55/105/22
f 49/93/19 56/114/23 57/109/24
f 58/111/19 62/382/26 59/112/25
f 56/114/23 58/111/19 60/113/20
f 57/115/24 60/122/20 61/116/17
f 55/117/22 54/124/18 58/118/19
f 62/119/26 64/127/28 63/120/27
f 60/122/20 59/383/25 63/123/27
f 54/124/18 64/384/28 62/125/26
f 61/126/17 63/120/27 64/127/28
f 65/128/1 73/142/9 66/129/2
f 66/131/2 74/152/10 68/132/4
f 70/134/6 69/146/5 71/135/7
f 72/137/8 71/144/7 73/138/9
f 67/140/3 66/131/2 69/133/5
f 73/142/9 75/148/11 74/143/10
f 71/144/7 76/154/12 75/145/11
f 69/146/5 68/150/4 76/147/12
f 75/148/11 80/212/16 77/149/13
f 68/150/4 79/214/15 78/151/14
f 74/152/10 77/215/13 79/153/15
f 76/154/12 78/213/14 80/155/16
f 81/156/17 89/170/9 82/157/2
f 82/159/2 90/180/10 84/160/4
f 86/162/19 85/174/5 87/163/7
f 88/165/20 87/172/7 89/166/9
f 83/168/18 82/159/2 85/161/5
f 89/170/9 91/176/11 90/171/10
f 87/172/7 92/182/12 91/173/11
f 85/174/5 84/178/4 92/175/12
f 91/176/11 96/216/16 93/177/13
f 84/178/4 95/218/15 94/179/14
f 90/180/10 93/219/13 95/181/15
f 92/182/12 94/217/14 96/183/16
f 97/184/17 105/198/9 98/185/2
f 98/187/2 106/208/10 100/188/4
f 102/190/19 101/202/5 103/191/7
f 104/193/20 103/200/7 105/194/9
f 99/196/18 98/187/2 101/189/5
f 105/198/9 107/204/11 106/199/10
f 103/200/7 108/210/12 107/201/11
f 101/202/5 100/206/4 108/203/12
f 107/204/11 112/225/16 109/205/13
f 100/206/4 111/221/15 110/207/14
f 106/208/10 109/227/13 111/209/15
f 108/210/12 110/223/14 112/211/16
f 81/156/17 83/158/18 77/149/13
f 88/165/20 81/167/17 80/155/16
f 86/162/19 88/164/20 78/151/14
f 83/168/18 86/169/19 79/153/15
f 97/184/17 99/186/18 93/177/13
f 104/193/20 97/195/17 96/183/16
f 102/190/19 104/192/20 94/179/14
f 99/196/18 102/197/19 95/181/15
f 113/220/19 114/237/20 110/207/14
f 114/222/20 115/229/17 112/211/16
f 115/224/17 116/235/18 109/205/13
f 116/226/18 113/234/19 111/209/15
f 114/222/20 121/242/24 117/228/21
f 117/230/21 125/253/17 118/231/18
f 116/226/18 119/244/22 120/233/23
f 115/224/17 117/230/21 119/232/22
f 113/220/19 120/241/23 121/236/24
f 122/238/19 126/385/26 123/239/25
f 120/241/23 122/238/19 124/240/20
f 121/242/24 124/249/20 125/243/17
f 119/244/22 118/251/18 122/245/19
f 126/246/26 128/254/28 127/247/27
f 124/249/20 123/386/25 127/250/27
f 118/251/18 128/387/28 126/252/26
f 125/253/17 127/247/27 128/254/28
f 129/255/29 137/269/9 130/256/2
f 130/258/2 138/279/10 132/259/4
f 134/261/31 133/273/5 135/262/7
f 136/264/32 135/271/7 137/265/9
f 131/267/30 130/258/2 133/260/5
f 137/269/9 139/275/11 138/270/10
f 135/271/7 140/281/12 139/272/11
f 133/273/5 132/277/4 140/274/12
f 139/275/11 144/339/16 141/276/13
f 132/277/4 143/341/15 142/278/14
f 138/279/10 141/342/13 143/280/15
f 140/281/12 142/340/14 144/282/16
f 145/283/17 153/297/9 146/284/2
f 146/286/2 154/307/10 148/287/4
f 150/289/19 149/301/5 151/290/7
f 152/292/33 151/299/7 153/293/9
f 147/295/18 146/286/2 149/288/5
f 153/297/9 155/303/11 154/298/10
f 151/299/7 156/309/12 155/300/11
f 149/301/5 148/305/4 156/302/12
f 155/303/11 160/343/16 157/304/13
f 148/305/4 159/345/15 158/306/14
f 154/307/10 157/346/13 159/308/15
f 156/309/12 158/344/14 160/310/16
f 161/311/17 169/325/9 162/312/2
f 162/314/2 170/335/10 164/315/4
f 166/317/19 165/329/5 167/318/7
f 168/320/33 167/327/7 169/321/9
f 163/323/18 162/314/2 165/316/5
f 169/325/9 171/331/11 170/326/10
f 167/327/7 172/337/12 171/328/11
f 165/329/5 164/333/4 172/330/12
f 171/331/11 176/352/16 173/332/13
f 164/333/4 175/348/15 174/334/14
f 170/335/10 173/354/13 175/336/15
f 172/337/12 174/350/14 176/338/16
f 145/283/17 147/285/18 141/276/13
f 152/292/33 145/294/17 144/282/16
f 150/289/19 152/291/33 142/278/14
f 147/295/18 150/296/19 143/280/15
f 161/311/17 163/313/18 157/304/13
f 168/320/33 161/322/17 160/310/16
f 166/317/19 168/319/33 158/306/14
f 163/323/18 166/324/19 159/308/15
f 177/347/19 178/364/20 174/334/14
f 178/349/20 179/356/17 176/338/16
f 179/351/17 180/362/18 173/332/13
f 180/353/18 177/361/19 175/336/15
f 178/349/20 185/369/24 181/355/21
f 181/357/21 189/380/17 182/358/18
f 180/353/18 183/371/22 184/360/23
f 179/351/17 181/357/21 183/359/22
f 177/347/19 184/368/23 185/363/24
f 186/365/19 190/388/26 187/366/25
f 184/368/23 186/365/19 188/367/34
f 185/369/24 188/376/34 189/370/17
f 183/371/22 182/378/18 186/372/19
f 190/373/26 192/381/28 191/374/27
f 188/376/34 187/389/25 191/377/27
f 182/378/18 192/390/28 190/379/26
f 189/380/17 191/374/27 192/381/28
f 193/391/35 194/392/35 195/393/35
f 194/392/35 196/394/35 195/393/35
f 195/395/36 196/396/36 197/397/36
f 196/396/36 198/398/36 197/397/36
f 197/399/37 198/400/37 199/401/37
f 198/400/37 200/402/37 199/401/37
f 199/403/38 200/404/38 193/405/38
f 200/404/38 194/406/38 193/405/38
f 199/407/39 193/408/39 197/409/39
f 193/408/39 195/410/39 197/409/39
f 194/411/40 200/412/40 196/413/40
f 200/412/40 198/414/40 196/413/40
f 201/415/41 202/416/42 203/417/43
f 204/418/44 205/419/45 206/420/46
f 207/421/47 203/422/43 208/423/48
f 206/424/46 201/425/41 207/426/47
f 208/427/48 202/428/42 204/429/44
f 201/415/41 205/430/45 202/416/42
f 204/418/44 202/428/42 205/419/45
f 207/421/47 201/425/41 203/422/43
f 206/424/46 205/419/45 201/425/41
f 208/427/48 203/422/43 202/428/42
f 209/431/36 210/432/36 211/433/36
f 210/432/36 212/434/36 211/433/36
f 211/435/37 212/436/37 213/437/37
f 212/436/37 214/438/37 213/437/37
f 213/439/38 214/440/38 215/441/38
f 214/440/38 216/442/38 215/441/38
f 215/443/35 216/444/35 209/445/35
f 216/444/35 210/446/35 209/445/35
f 215/447/39 209/448/39 213/449/39
f 209/448/39 211/450/39 213/449/39
f 210/451/40 216/452/40 212/453/40
f 216/452/40 214/454/40 212/453/40
f 217/455/36 218/456/36 219/457/36
f 218/456/36 220/458/36 219/457/36
f 219/459/37 220/460/37 221/461/37
f 220/460/37 222/462/37 221/461/37
f 221/463/38 222/464/38 223/465/38
f 222/464/38 224/466/38 223/465/38
f 223/467/35 224/468/35 217/469/35
f 224/468/35 218/470/35 217/469/35
f 223/471/39 217/472/39 221/473/39
f 217/472/39 219/474/39 221/473/39
f 218/475/40 224/476/40 220/477/40
f 224/476/40 222/478/40 220/477/40
f 225/479/36 226/480/36 227/481/36
f 226/480/36 228/482/36 227/481/36
f 227/483/37 228/484/37 229/485/37
f 228/484/37 230/486/37 229/485/37
f 229/487/38 230/488/38 231/489/38
f 230/488/38 232/490/38 231/489/38
f 231/491/35 232/492/35 225/493/35
f 232/492/35 226/494/35 225/493/35
f 231/495/39 225/496/39 229/497/39
f 225/496/39 227/498/39 229/497/39
f 226/499/40 232/500/40 228/501/40
f 232/500/40 230/502/40 228/501/40
f 233/503/36 234/504/36 235/505/36
f 234/504/36 236/506/36 235/505/36
f 235/507/37 236/508/37 237/509/37
f 236/508/37 238/510/37 237/509/37
f 237/511/38 238/512/38 239/513/38
f 238/512/38 240/514/38 239/513/38
f 239/515/35 240/516/35 233/517/35
f 240/516/35 234/518/35 233/517/35
f 239/519/39 233/520/39 237/521/39
f 233/520/39 235/522/39 237/521/39
f 234/523/40 240/524/40 236/525/40
f 240/524/40 238/526/40 236/525/40
f 241/527/36 242/528/36 243/529/36
f 242/528/36 244/530/36 243/529/36
f 243/531/37 244/532/37 245/533/37
f 244/532/37 246/534/37 245/533/37
f 245/535/38 246/536/38 247/537/38
f 246/536/38 248/538/38 247/537/38
f 247/539/35 248/540/35 241/541/35
f 248/540/35 242/542/35 241/541/35
f 247/543/39 241/544/39 245/545/39
f 241/544/39 243/546/39 245/545/39
f 242/547/40 248/548/40 244/549/40
f 248/548/40 246/550/40 244/549/40
f 249/551/36 250/552/36 251/553/36
f 250/552/36 252/554/36 251/553/36
f 251/555/37 252/556/37 253/557/37
f 252/556/37 254/558/37 253/557/37
f 253/559/38 254/560/38 255/561/38
f 254/560/38 256/562/38 255/561/38
f 255/563/35 256/564/35 249/565/35
f 256/564/35 250/566/35 249/565/35
f 255/567/39 249/568/39 253/569/39
f 249/568/39 251/570/39 253/569/39
f 250/571/40 256/572/40 252/573/40
f 256/572/40 254/574/40 252/573/40
f 257/575/49 258/576/50 259/577/51
f 260/578/52 261/579/53 262/580/54
f 263/581/55 259/577/51 264/582/56
f 262/583/54 257/575/49 263/584/55
f 264/585/56 258/576/50 260/586/52
f 257/575/49 261/579/53 258/576/50
f 260/578/52 258/576/50 261/579/53
f 263/581/55 257/575/49 259/577/51
f 262/583/54 261/579/53 257/575/49
f 264/585/56 259/577/51 258/576/50
